# xmcd
#
# Track frame offsets: 
#        150
#        13150
#        27187
#        41237
#        54762
#        67187
#        80875
#        92102
#        102890
#        113767
#        124840
#        137060
#        149062
#        160617
#        172140
#        184467
#        198982
#        212045
#        225092
#
# Disc length: 3194 seconds
#
# Revision: 0
# Processed by: cddbd v1.5.2PL0 Copyright (c) Steve Scherf et al.
# Submitted via: ExactAudioCopy v0.99pb4
#
DISCID=140c7813
DTITLE=Various Artist - The Sounds Of Memphis (1933 - 1939)
DYEAR=1900
DGENRE=Blues
TTITLE0=Highway 61 Blues
TTITLE1=Red Ripe Tomatoes
TTITLE2=Cold Iron Bed
TTITLE3=Policy Rag
TTITLE4=Highway 61 Blues
TTITLE5=Doctor Medicine
TTITLE6=Betty Sue Blues
TTITLE7=Joe Louis Special
TTITLE8=You Done Done It
TTITLE9=Men Fooler Blues
TTITLE10=Hard Scufflin' Blues
TTITLE11=Grief Will Kill You
TTITLE12=Renewed Love Blues
TTITLE13=She's Got Good Dry Goods
TTITLE14=Lost Baby Blues
TTITLE15=Crazy 'Bout My Black Gal
TTITLE16=Trembling Blues
TTITLE17=Let Me Squeeze Your Lemon
TTITLE18=Down the Highway
EXTD=
EXTT0=
EXTT1=
EXTT2=
EXTT3=
EXTT4=
EXTT5=
EXTT6=
EXTT7=
EXTT8=
EXTT9=
EXTT10=
EXTT11=
EXTT12=
EXTT13=
EXTT14=
EXTT15=
EXTT16=
EXTT17=
EXTT18=
PLAYORDER=
